# xmcd CD Database Entry
#
# Track frame offsets:
# 150
# 27040
# 54107
# 83680
# 107376
# 133587
# 160245
# 174437
# 196665
# 224190
# 239396
# 259795
# 286554
#
# Disc length: 4033 seconds
#
# Revision: 1
# Processed by: cddbd v1.4b41PL1 Copyright (c) Steve Scherf et al.
# Submitted via: tcd 2.0b
#
DISCID=a20fbf0d
DTITLE=KHANS HITS
DYEAR=1900
DGENRE=
TTITLE0=ae mere humsafar(QSQT)
TTITLE1=gajab ka din hai(QSQT)
TTITLE2=chaya chaya(Dil Se)
TTITLE3=chunari chunari(Biwi No.1)
TTITLE4=ho gaya hai tujh ko(DDLJ)
TTITLE5=janam samjha karo(Janam Samjha Karo)
TTITLE6=kali nagin ke jaisi(Mann) 
TTITLE7=tum pas aaye(KKHH)
TTITLE8=ladki badi anjani hai(KKHH)
TTITLE9=mera mann(Mann)
TTITLE10=nasha ye pyar ka(Mann)
TTITLE11=papa kehte hai(QSQT)
TTITLE12=rut aagayee re(1947-Arth)
EXTD=
EXTT0=
EXTT1=
EXTT2=
EXTT3=
EXTT4=
EXTT5=
EXTT6=
EXTT7=
EXTT8=
EXTT9=
EXTT10=
EXTT11=
EXTT12=
PLAYORDER=
